<?xml version="1.0" standalone="no"?>
<!DOCTYPE svg PUBLIC "-//W3C//DTD SVG 20010904//EN"
 "http://www.w3.org/TR/2001/REC-SVG-20010904/DTD/svg10.dtd">
<svg version="1.0" xmlns="http://www.w3.org/2000/svg"
 width="1280.000000pt" height="640.000000pt" viewBox="0 0 1280.000000 640.000000"
 preserveAspectRatio="xMidYMid meet">
<metadata>
Created by potrace 1.15, written by Peter Selinger 2001-2017
</metadata>
<g transform="translate(0.000000,640.000000) scale(0.100000,-0.100000)"
fill="#000000" stroke="none">
<path d="M1070 3833 c-57 -6 -179 -34 -218 -50 -64 -26 -158 -100 -191 -149
-56 -85 -73 -148 -69 -250 3 -73 9 -101 31 -146 39 -79 128 -161 229 -208 79
-37 281 -100 320 -100 10 0 18 -4 18 -10 0 -5 -25 -10 -55 -10 -59 0 -468 -26
-551 -35 l-51 -6 9 -57 c29 -188 128 -336 272 -403 118 -55 172 -64 386 -64
185 0 205 2 389 38 245 48 309 73 405 158 l36 31 0 -106 0 -106 243 0 c228 0
249 2 360 27 l117 27 0 258 0 258 95 0 95 0 0 -285 0 -285 248 1 c239 1 250 1
330 27 l83 27 -1 679 c0 374 -3 682 -5 684 -19 20 -167 31 -397 32 l-258 0 0
-245 0 -245 -94 0 -93 0 -7 46 c-3 26 -6 129 -6 230 0 182 0 184 -22 188 -88
19 -201 26 -427 26 l-260 0 -3 -112 -3 -111 -29 41 c-37 54 -131 116 -212 142
-123 38 -573 78 -714 63z m960 -583 l0 -111 -53 40 c-70 53 -146 86 -292 126
l-120 32 175 10 c96 5 201 10 233 11 l57 2 0 -110z m-660 -412 c21 -34 27 -78
11 -78 -10 0 -51 79 -51 98 0 22 20 12 40 -20z"/>
<path d="M4200 3828 c-191 -27 -355 -122 -456 -264 -100 -140 -140 -299 -131
-519 9 -220 61 -361 181 -492 76 -83 154 -134 254 -167 112 -36 180 -46 324
-46 200 0 295 24 475 123 168 91 262 209 315 392 30 107 33 373 5 475 -33 119
-83 207 -161 284 -86 86 -153 123 -309 170 -177 53 -334 67 -497 44z m312
-414 c85 -54 125 -187 115 -374 -8 -141 -28 -204 -82 -258 -43 -42 -45 -43
-92 -36 -141 20 -208 113 -220 304 -13 213 43 342 166 386 42 15 62 11 113
-22z"/>
<path d="M11050 3825 c-348 -43 -416 -59 -522 -128 -73 -47 -148 -127 -193
-203 -21 -35 -38 -64 -39 -64 0 0 0 85 2 190 l3 190 -248 0 c-219 0 -318 -6
-402 -26 l-24 -5 5 -195 c2 -106 2 -194 -1 -194 -3 0 -68 95 -143 210 l-138
210 -237 0 c-150 -1 -260 -6 -298 -13 l-60 -13 -3 -685 -2 -685 77 -27 c76
-26 85 -27 300 -27 l223 0 2 242 3 242 141 -215 140 -215 105 -27 c98 -26 117
-27 326 -27 l223 0 2 203 3 202 35 -64 c52 -96 140 -180 241 -230 68 -34 121
-50 279 -83 191 -41 199 -42 395 -42 174 -1 212 2 290 22 97 24 296 117 378
177 l47 35 0 315 0 315 -489 0 c-270 0 -492 3 -494 8 -3 4 4 34 14 67 19 62
79 145 104 145 17 0 59 -54 74 -93 l11 -27 145 0 c125 0 176 5 372 41 126 22
233 42 240 44 16 5 0 62 -44 153 -68 139 -191 233 -348 267 -102 22 -356 27
-495 10z m103 -950 l67 -7 0 -32 c0 -31 -4 -35 -67 -64 l-68 -31 -28 27 c-29
27 -67 91 -67 113 0 7 16 9 48 5 26 -3 77 -8 115 -11z"/>
<path d="M5294 3503 c3 -170 5 -496 6 -725 l0 -418 239 0 240 0 20 29 c20 27
21 43 21 260 l0 231 128 0 c298 1 460 77 543 254 59 126 61 312 5 439 -50 113
-161 198 -294 226 -34 7 -208 11 -483 11 l-431 0 6 -307z m732 -64 c28 -27 46
-82 37 -118 -17 -69 -73 -101 -178 -101 l-65 0 0 126 0 127 91 -5 c76 -5 94
-9 115 -29z"/>
<path d="M6700 3791 c-14 -28 -14 -1357 1 -1400 l11 -31 244 0 244 0 0 260 0
260 138 0 c75 0 167 5 205 10 238 35 379 170 405 392 27 223 -60 410 -223 483
-93 42 -136 45 -585 45 -414 0 -430 -1 -440 -19z m663 -349 c19 -11 37 -33 46
-56 34 -89 -39 -166 -156 -166 l-53 0 0 126 0 127 66 -6 c36 -4 80 -15 97 -25z"/>
<path d="M8085 3796 l-40 -13 -3 -684 -2 -685 55 -27 55 -27 240 0 240 0 2
725 3 725 -255 -1 c-171 -1 -268 -5 -295 -13z"/>
</g>
</svg>
